<?xml version="1.0" encoding="UTF-8"?>
<svg version="1.1" xmlns="http://www.w3.org/2000/svg" width="192" height="192">
<path d="M0 0 C63.36 0 126.72 0 192 0 C192 63.36 192 126.72 192 192 C128.64 192 65.28 192 0 192 C0 128.64 0 65.28 0 0 Z " fill="#A42031" transform="translate(0,0)"/>
<path d="M0 0 C63.36 0 126.72 0 192 0 C192 63.36 192 126.72 192 192 C128.64 192 65.28 192 0 192 C0 128.64 0 65.28 0 0 Z M30 22 C30 26.95 30 31.9 30 37 C24.39 37 18.78 37 13 37 C13 73.63 13 110.26 13 148 C33.52395567 147.69670078 33.52395567 147.69670078 54.04394531 147.21679688 C75.68719144 146.99108094 75.68719144 146.99108094 81.51367188 152.3828125 C84.21606626 155.6138674 86.14561003 159.05183291 87.90759277 162.86401367 C89.8025457 166.56921943 92.41244049 169.75653342 95 173 C98.74887597 171.75037468 99.39189857 170.39930638 101.625 167.1875 C102.6109911 165.77923845 103.60130899 164.37365129 104.62101746 162.98960876 C106.11840363 160.88660711 106.11840363 160.88660711 107.6920929 158.07789612 C113.02596454 149.66078911 113.02596454 149.66078911 118.2789917 147.90238953 C122.17285627 147.51868886 125.97660874 147.48843401 129.87890625 147.609375 C131.12796753 147.60180176 132.37702881 147.59422852 133.66394043 147.58642578 C138.29710214 147.5757383 142.93003533 147.66892757 147.5625 147.75 C157.936875 147.8325 168.31125 147.915 179 148 C179 111.37 179 74.74 179 37 C173.39 37 167.78 37 162 37 C162 32.05 162 27.1 162 22 C157.23417998 21.90735987 152.47157498 21.82798123 147.70556641 21.78027344 C146.08989791 21.76035468 144.4742996 21.73320926 142.85888672 21.69824219 C127.97992658 21.38461253 116.086312 23.58480084 104 33 C101.41610759 35.48935976 99.00795748 38.01890271 97 41 C97 41.66 97 42.32 97 43 C94.89019035 40.9655407 93.01371323 39.0193001 91.3125 36.625 C84.0878081 28.42399838 72.65151286 23.70461629 62 22 C59.50500229 21.91919106 57.00800494 21.89239839 54.51171875 21.90234375 C53.4569207 21.90446617 53.4569207 21.90446617 52.3808136 21.90663147 C50.14966456 21.91219891 47.91861836 21.92474525 45.6875 21.9375 C44.16862125 21.94251921 42.64974091 21.94708138 41.13085938 21.95117188 C37.42050207 21.96130393 33.71036524 21.98088535 30 22 Z " fill="#F4F3ED" transform="translate(0,0)"/>
<path d="M0 0 C1.11181641 0.00322266 2.22363281 0.00644531 3.36914062 0.00976562 C4.51962891 0.01814453 5.67011719 0.02652344 6.85546875 0.03515625 C8.02529297 0.03966797 9.19511719 0.04417969 10.40039062 0.04882812 C13.28130233 0.06058695 16.16210919 0.07702199 19.04296875 0.09765625 C19.0929329 4.88076305 19.12895131 9.66371321 19.15283203 14.44702148 C19.16280232 16.06944429 19.17638344 17.69184954 19.19384766 19.31420898 C19.44530043 43.2983665 12.90308136 58.6917129 -2.0078125 77.375 C-12.4732149 90.51493272 -22.63914823 104.12083171 -31.95703125 118.09765625 C-32.61703125 118.09765625 -33.27703125 118.09765625 -33.95703125 118.09765625 C-34.04982725 105.84942558 -34.12084521 93.60127894 -34.16427994 81.35276794 C-34.18512944 75.66490232 -34.21339929 69.97727771 -34.25878906 64.28955078 C-34.30234029 58.79766479 -34.32618819 53.30601023 -34.33654022 47.81396484 C-34.3439149 45.72164265 -34.35831593 43.62933271 -34.37995148 41.53710938 C-34.4091084 38.59998482 -34.41298207 35.66380915 -34.41113281 32.7265625 C-34.42551392 31.86700455 -34.43989502 31.00744659 -34.45471191 30.12184143 C-34.39681541 21.58958318 -30.83414379 15.22740962 -25.15234375 8.9921875 C-17.91380789 2.74540833 -9.41601983 -0.04828728 0 0 Z " fill="#F3F1EC" transform="translate(133.95703125,32.90234375)"/>
<path d="M0 0 C3.93724069 -0.11786788 7.87401761 -0.18780174 11.8125 -0.25 C13.46282227 -0.30027344 13.46282227 -0.30027344 15.14648438 -0.3515625 C26.25917396 -0.48268568 36.54582445 2.49794519 45 10 C50.42663551 16.77472601 52.14835136 21.41383097 52.11352539 30.03955078 C52.11367142 30.97618561 52.11381744 31.91282043 52.1139679 32.87783813 C52.11326944 35.98368622 52.10548015 39.08947485 52.09765625 42.1953125 C52.09579183 44.34479744 52.09436804 46.4942828 52.09336853 48.64376831 C52.08954522 54.30895149 52.07971651 59.97410915 52.06866455 65.63928223 C52.05844644 71.41707006 52.05387005 77.194862 52.04882812 82.97265625 C52.03809409 94.3151154 52.02101989 105.65755558 52 117 C49.15427889 114.17562709 46.4012108 111.41062099 43.94140625 108.2421875 C43.39766357 107.54367676 42.8539209 106.84516602 42.29370117 106.12548828 C41.72240479 105.38282715 41.1511084 104.64016602 40.5625 103.875 C39.95704346 103.09237793 39.35158691 102.30975586 38.7277832 101.50341797 C33.10269867 94.19930124 27.6292158 86.78678926 22.1953125 79.33984375 C20.29151665 76.7363382 18.36479022 74.16111141 16.3671875 71.62890625 C2.99614466 54.56382954 -0.52450594 38.46550426 -0.1875 17.1875 C-0.17241177 15.51238195 -0.15873075 13.83725061 -0.14648438 12.16210938 C-0.11383883 8.10773724 -0.06229092 4.05402056 0 0 Z " fill="#F4F3ED" transform="translate(39,33)"/>
<path d="M0 0 C2.64 0 5.28 0 8 0 C8 29.7 8 59.4 8 90 C-6.85 90 -21.7 90 -37 90 C-35.13082706 86.26165412 -30.2879977 85.5602576 -26.54296875 84.17578125 C-17.50225493 81.17550026 -9.71820933 81 0 81 C0 54.27 0 27.54 0 0 Z " fill="#F2E9E3" transform="translate(162,48)"/>
<path d="M0 0 C2.64 0 5.28 0 8 0 C8 26.73 8 53.46 8 81 C11.63 81 15.26 81 19 81 C28.22575042 82.19323586 36.58996294 85.10304144 45 89 C45 89.33 45 89.66 45 90 C30.15 90 15.3 90 0 90 C0 60.3 0 30.6 0 0 Z " fill="#F2E9E4" transform="translate(22,48)"/>
<path d="M0 0 C0.33 0 0.66 0 1 0 C1 7.26 1 14.52 1 22 C-10.71428571 24.28571429 -10.71428571 24.28571429 -16 24 C-14.66755645 21.1591298 -13.16070533 18.73597145 -11.25 16.25 C-10.46109375 15.21359375 -10.46109375 15.21359375 -9.65625 14.15625 C-8 12 -8 12 -6.34375 9.84375 C-5.8178125 9.1528125 -5.291875 8.461875 -4.75 7.75 C-4.27046875 7.12609375 -3.7909375 6.5021875 -3.296875 5.859375 C-1.98332389 3.97609088 -0.97383721 2.07629443 0 0 Z " fill="#F2E7E1" transform="translate(152,97)"/>
<path d="M0 0 C6.71667884 6.71667884 11.82606661 15.06271582 17 23 C15.66658348 22.85492922 14.33327236 22.7088897 13 22.5625 C12.2575 22.48128906 11.515 22.40007812 10.75 22.31640625 C7.1635603 21.90376191 3.58222278 21.44777785 0 21 C0 14.07 0 7.14 0 0 Z " fill="#F2EAE4" transform="translate(39,98)"/>
<path d="M0 0 C0.66 0.99 1.32 1.98 2 3 C0.02 5.64 -1.96 8.28 -4 11 C-4.66 10.67 -5.32 10.34 -6 10 C-4.02 6.7 -2.04 3.4 0 0 Z " fill="#A73E49" transform="translate(147,87)"/>
<path d="M0 0 C0 3 0 3 -2.375 5.6875 C-5 8 -5 8 -7 8 C-5.50902342 4.2047869 -3.24299151 2.38957269 0 0 Z " fill="#A83F4E" transform="translate(107,31)"/>
<path d="M0 0 C0.99 0.99 1.98 1.98 3 3 C2.71483972 6.0417096 1.73969465 7.39045802 0 10 C0 6.7 0 3.4 0 0 Z " fill="#F2E0DD" transform="translate(39,98)"/>
<path d="M0 0 C0.33 0.99 0.66 1.98 1 3 C-0.21484375 4.82421875 -0.21484375 4.82421875 -1.9375 6.6875 C-2.50339844 7.31011719 -3.06929688 7.93273437 -3.65234375 8.57421875 C-4.09707031 9.04472656 -4.54179688 9.51523438 -5 10 C-5 6.60406522 -4.47834052 5.93380119 -2.5 3.3125 C-2.0359375 2.68988281 -1.571875 2.06726563 -1.09375 1.42578125 C-0.7328125 0.95527344 -0.371875 0.48476562 0 0 Z " fill="#E9D2CE" transform="translate(110,154)"/>
<path d="M0 0 C0.33 0.99 0.66 1.98 1 3 C1.99 3 2.98 3 4 3 C2.25 6.875 2.25 6.875 0 8 C0 5.36 0 2.72 0 0 Z " fill="#ECDED7" transform="translate(101,142)"/>
</svg>
